<svg preserveAspectRatio="none" width="100%" height="100%" overflow="visible" style="display: block;" viewBox="0 0 39 42.125" fill="none" xmlns="http://www.w3.org/2000/svg">
<g id="material-symbols:search" filter="url(#filter0_d_0_4)">
<path id="Vector" d="M31.85 34.125L21.6125 23.8875C20.8 24.5375 19.8656 25.0521 18.8094 25.4312C17.7531 25.8104 16.6292 26 15.4375 26C12.4854 26 9.98725 24.9773 7.943 22.932C5.89875 20.8867 4.87608 18.3885 4.875 15.4375C4.87392 12.4865 5.89658 9.98833 7.943 7.943C9.98942 5.89767 12.4876 4.875 15.4375 4.875C18.3874 4.875 20.8861 5.89767 22.9336 7.943C24.9811 9.98833 26.0033 12.4865 26 15.4375C26 16.6292 25.8104 17.7531 25.4312 18.8094C25.0521 19.8656 24.5375 20.8 23.8875 21.6125L34.125 31.85L31.85 34.125ZM15.4375 22.75C17.4687 22.75 19.1956 22.0393 20.618 20.618C22.0404 19.1967 22.7511 17.4698 22.75 15.4375C22.7489 13.4052 22.0383 11.6789 20.618 10.2586C19.1978 8.83838 17.4709 8.12717 15.4375 8.125C13.4041 8.12283 11.6778 8.83404 10.2586 10.2586C8.83946 11.6832 8.12825 13.4095 8.125 15.4375C8.12175 17.4655 8.83296 19.1923 10.2586 20.618C11.6843 22.0437 13.4106 22.7543 15.4375 22.75Z" fill="var(--fill-0, white)"/>
</g>
<defs>
<filter id="filter0_d_0_4" x="-4" y="0" width="47" height="47" filterUnits="userSpaceOnUse" color-interpolation-filters="sRGB">
<feFlood flood-opacity="0" result="BackgroundImageFix"/>
<feColorMatrix in="SourceAlpha" type="matrix" values="0 0 0 0 0 0 0 0 0 0 0 0 0 0 0 0 0 0 127 0" result="hardAlpha"/>
<feOffset dy="4"/>
<feGaussianBlur stdDeviation="2"/>
<feComposite in2="hardAlpha" operator="out"/>
<feColorMatrix type="matrix" values="0 0 0 0 0 0 0 0 0 0 0 0 0 0 0 0 0 0 0.5 0"/>
<feBlend mode="normal" in2="BackgroundImageFix" result="effect1_dropShadow_0_4"/>
<feBlend mode="normal" in="SourceGraphic" in2="effect1_dropShadow_0_4" result="shape"/>
</filter>
</defs>
</svg>
